<svg xmlns="http://www.w3.org/2000/svg" width="751" height="1318" fill="none" viewBox="0 0 751 1318"><path fill="#4B5259" d="M750.839 1041.82L351.602 1179.06V1317.43L750.839 1179.06V1041.82Z"/><path fill="#000" fill-opacity=".07" d="M750.839 1041.82L351.602 1179.06V1317.43L750.839 1179.06V1041.82Z"/><path fill="#4B5259" d="M0 1063.37L351.601 1179.06V1317.27L0 1200.44V1063.37Z"/><path fill="#4B5259" d="M750.839 1041.82L351.601 1179.06L0 1063.37L399.238 925L750.839 1041.82Z"/><path fill="#fff" fill-opacity=".04" d="M750.839 1041.82L351.601 1179.06L0 1063.37L399.238 925L750.839 1041.82Z"/><path fill="#4B5259" d="M750.839 856.822L351.602 994.06V1132.43L750.839 994.06V856.822Z"/><path fill="#000" fill-opacity=".07" d="M750.839 856.822L351.602 994.06V1132.43L750.839 994.06V856.822Z"/><path fill="#4B5259" d="M0 878.372L351.601 994.06V1132.27L0 1015.44V878.372Z"/><path fill="#4B5259" d="M750.839 856.822L351.601 994.06L0 878.372L399.238 740L750.839 856.822Z"/><path fill="#fff" fill-opacity=".04" d="M750.839 856.822L351.601 994.06L0 878.372L399.238 740L750.839 856.822Z"/><path fill="#4B5259" d="M750.839 562.822L351.602 700.06V838.433L750.839 700.06V562.822Z"/><path fill="#000" fill-opacity=".07" d="M750.839 562.822L351.602 700.06V838.433L750.839 700.06V562.822Z"/><path fill="#4B5259" d="M0 584.372L351.601 700.06V838.266L0 721.444V584.372Z"/><path fill="#4B5259" d="M750.839 562.822L351.601 700.06L0 584.372L399.238 446L750.839 562.822Z"/><path fill="#fff" fill-opacity=".04" d="M750.839 562.822L351.601 700.06L0 584.372L399.238 446L750.839 562.822Z"/><path fill="#4B5259" d="M750.839 116.822L351.602 254.06V392.433L750.839 254.06V116.822Z"/><path fill="#000" fill-opacity=".07" d="M750.839 116.822L351.602 254.06V392.433L750.839 254.06V116.822Z"/><path fill="#4B5259" d="M0 138.372L351.601 254.06V392.266L0 275.444V138.372Z"/><path fill="#4B5259" d="M750.839 116.822L351.601 254.06L0 138.372L399.238 0L750.839 116.822Z"/><path fill="#fff" fill-opacity=".04" d="M750.839 116.822L351.601 254.06L0 138.372L399.238 0L750.839 116.822Z"/></svg>