<svg xmlns="http://www.w3.org/2000/svg" width="56" height="50" fill="none" viewBox="0 0 56 50"><rect width="36.879" height="36.03" x="8.287" y="7.591" stroke="#fff" stroke-width="3" rx="1.5"/><line x1="38.549" x2="55.782" y1="15.633" y2="17.857" stroke="#fff" stroke-width="3"/><line x1="38.297" x2="52.195" y1="22.849" y2="22.293" stroke="#fff" stroke-width="3"/><line x1="38.182" x2="56" y1="28.348" y2="28.348" stroke="#fff" stroke-width="3"/><line x1="38.182" x2="52.606" y1="35.985" y2="35.985" stroke="#fff" stroke-width="3"/><line x1=".848" x2="11.878" y1="15.621" y2="15.621" stroke="#fff" stroke-width="3"/><line x1="1.211" x2="12" y1="21.739" y2="22.461" stroke="#fff" stroke-width="3"/><line x1=".976" x2="13.205" y1="28.413" y2="27.301" stroke="#fff" stroke-width="3"/><line x1=".473" x2="13.662" y1="32.374" y2="36.753" stroke="#fff" stroke-width="3"/><line x1="15.861" x2="19.752" y1="1.037" y2="11.6" stroke="#fff" stroke-width="3"/><line x1="24.291" x2="24.847" y1=".925" y2="12.043" stroke="#fff" stroke-width="3"/><line x1="32.071" x2="31.515" y1="3.317" y2="12.212" stroke="#fff" stroke-width="3"/><line x1="33.742" x2="33.742" y1="40.879" y2="49.364" stroke="#fff" stroke-width="3"/><line x1="20.397" x2="19.841" y1="41.125" y2="49.463" stroke="#fff" stroke-width="3"/><line x1="28.735" x2="29.291" y1="40.375" y2="49.27" stroke="#fff" stroke-width="3"/></svg>